# xmcd CD database file
#
# Track frame offsets:
#	150
#	12907
#	25790
#	39780
#	49006
#	65671
#	78575
#	90832
#	106884
#	118215
#	132881
#	143928
#
# Disc length: 2158 seconds
#
# Revision: 0
# Processed by: cddbd v1.5.2PL0 Copyright (c) Steve Scherf et al.
# Submitted via: CDex 1.70beta2
#
DISCID=94086c0c
DTITLE=Jo Horne - Lady In Waiting
DYEAR=2007
DGENRE=Country
TTITLE0=A Little Bit Longer
TTITLE1=Mean To Be Mean
TTITLE2=Tricks Of The Light
TTITLE3=Come And Play Again
TTITLE4=Train To Nowhere
TTITLE5=Dont You Ever
TTITLE6=Having Fun
TTITLE7=Tantalus
TTITLE8=Dont Get Lost
TTITLE9=Why Did You Go
TTITLE10=Lady In Waiting
TTITLE11=So Ends A Story
EXTD=YEAR: 2007
EXTT0=
EXTT1=
EXTT2=
EXTT3=
EXTT4=
EXTT5=
EXTT6=
EXTT7=
EXTT8=
EXTT9=
EXTT10=
EXTT11=
PLAYORDER=
